<svg width="103" height="103" xmlns="http://www.w3.org/2000/svg" xmlns:xlink="http://www.w3.org/1999/xlink" overflow="hidden"><defs><clipPath id="clip0"><rect x="587" y="307" width="103" height="103"/></clipPath></defs><g clip-path="url(#clip0)" transform="translate(-587 -307)"><path d="M587 358C587 329.833 609.833 307 638 307 666.167 307 689 329.833 689 358 689 386.167 666.167 409 638 409 609.833 409 587 386.167 587 358ZM612.5 358C612.5 372.083 623.917 383.5 638 383.5 652.083 383.5 663.5 372.083 663.5 358 663.5 343.917 652.083 332.5 638 332.5 623.917 332.5 612.5 343.917 612.5 358Z" fill="#FFFFFF" fill-rule="evenodd"/></g></svg>